<svg xmlns="http://www.w3.org/2000/svg" viewBox="0 0 1957.19 632.19"><title></title><path d="M378.13,357C358,352.3,339,347.73,319.82,343.31q-90-20.83-180.08-41.56Q114.44,295.9,89.13,290c-1.77-.41-4.13-.5-4.75-2.24-.71-2,1.67-3,2.86-4.23Q173.57,193.9,259.93,104.3c11.33-11.75,22.66-23.51,33.82-35.42,2.84-3,4.6-3.67,7.86-.24Q329.48,98,357.85,126.89c3.11,3.16,3,4.84,0,7.92q-51.91,53.73-103.57,107.72c-12.69,13.22-25.3,26.53-38.07,39.67-2.69,2.77-2.36,3.62,1.33,4.5q81.6,19.57,163.16,39.32,60.45,14.58,120.92,29.13c4.43,1.06,3,2.57.89,4.72q-32,33.08-63.82,66.22-70.68,73.5-141.33,147c-4.5,4.67-4.57,4.65-9-.06-17.95-19-35.8-38.13-53.92-57-3.33-3.46-3.23-5.4,0-8.78q44.32-45.79,88.33-91.87,26.46-27.6,52.84-55.28C376.27,359.43,376.83,358.64,378.13,357Z" transform="translate(-0.91 -0.91)" style="fill:#2b80cb"/><path d="M1154.21,218c8.32,0,16.66-.18,25,.08,3.71.12,5.15-.63,5-4.76-.36-9.49,0-19-.17-28.48,0-2.75.63-3.77,3.58-3.73q18.23.22,36.47,0c2.86,0,3.72.88,3.68,3.69-.14,9.66.13,19.33-.14,29-.11,3.65,1.09,4.33,4.47,4.3,17.15-.17,34.31,0,51.47-.16,3.56,0,4.38,1,4.36,4.44-.15,25.15-.05,50.3-.09,75.45,0,13.06-7,20-20.15,20-11.83,0-23.66.19-35.48-.09-3.89-.1-4.68,1.13-4.58,4.75.26,9.15,0,18.32.15,27.48.08,3.33-.7,4.68-4.36,4.61-11.82-.22-23.65-.18-35.47,0-3,0-4-.81-3.93-3.92.2-9.49-.09-19,.16-28.48.09-3.48-.82-4.45-4.36-4.41-17,.2-34-.06-51,.2-4.11.06-4.86-1.27-4.84-5q.23-45.22,0-90.45c0-3.93,1.18-4.64,4.75-4.53C1137.21,218.18,1145.71,218,1154.21,218Z" transform="translate(-0.91 -0.91)" style="fill:#e50000"/><path d="M1572.3,352.07c-27.16,0-54.32-.07-81.48.08-3.71,0-5.15-.64-5-4.78.32-9.19.07-9.2,9.06-9.2,18.67,0,37.33-.11,56,.09,3.7,0,4.83-.84,4.74-4.66-.26-11.49-.2-23,0-34.49.05-3.17-.71-4.24-4.11-4.2-15,.2-30,0-45,.17-3.52.05-4.47-.9-4.41-4.41.17-9.59,0-9.6,9.68-9.6,13,0,26-.18,39,.11,4.11.09,4.92-1.26,4.85-5-.22-12.32-.16-24.66,0-37,0-3-.38-4.53-4-4.33-6,.35-12,.19-18,0-2.4,0-3.45.47-3.72,3.19-.79,7.77-2.06,15.5-3,23.27-.38,3.16-1.12,4.86-5.1,4.72-10.82-.39-21.66-.21-32.49-.08-2.74,0-3.28-.72-2.89-3.42q4.86-33.34,9.36-66.75c.38-2.84,1-3.95,4.1-3.89q16.49.32,33,0c3.12-.06,3.55,1.07,3.14,3.73-1.14,7.4-2,14.85-3.2,22.24-.45,2.65.37,3.13,2.75,3.07,5.5-.13,11-.21,16.49,0,3,.13,3.58-1.06,3.55-3.74-.12-10.5.09-21-.1-31.49-.06-3.42.84-4.62,4.43-4.55,11.66.22,23.33.2,35,0,3.32-.06,4.21,1,4.14,4.22-.2,10.5.07,21-.16,31.49-.07,3.4,1.06,4.09,4.22,4.06,15-.15,30,0,45-.15,3.3,0,4.13.91,4.1,4.14-.09,9.93.06,9.94-9.76,9.94-13,0-26,.17-39-.11-3.89-.08-4.63,1.11-4.56,4.72.23,12.66.17,25.33,0,38,0,2.82.78,3.63,3.6,3.61,13.83-.14,27.67,0,41.49-.15,3.3,0,4.16.89,4.13,4.14-.08,9.87.07,9.87-9.77,9.87-11.83,0-23.66.09-35.49-.07-2.9,0-4,.46-4,3.75q.33,17.74,0,35.49c-.06,3.36,1,4.1,4.19,4.07,17.16-.15,34.32.06,51.48-.17,3.81-.05,4.74,1,4.65,4.71-.22,9.28,0,9.29-9.38,9.29Z" transform="translate(-0.91 -0.91)" style="fill:#e50000"/><path d="M839.3,279.68c-1.94,1.44-2.51,3.42-3.45,5.1-12,21.5-24,43-35.78,64.56-1.69,3.08-3.57,4.09-7,4-12.16-.2-24.33-.17-36.49,0-3,0-4.33-.68-3.93-3.86a22.41,22.41,0,0,0,0-5.49c-.39-3.33.61-5.1,4.28-4.51,1.7.27,2.75-.57,3.57-2.05q25.46-46.05,51-92.08c.07-.12,0-.3,0-1.07H806.8c-16.66,0-33.33-.09-50,.07-3.23,0-4.21-.84-4.19-4.14.07-9.52-.09-9.52,9.23-9.52,17,0,34-.11,51,.08,3.54,0,4.46-1,4.41-4.48-.19-13.49,0-27-.16-40.49,0-3.11.84-3.93,3.91-3.89,12,.17,24,.21,36,0,3.47-.06,4,1.18,4,4.26-.15,13.5.06,27-.15,40.49-.05,3.41,1.06,4.13,4.24,4.11,18.66-.13,37.32,0,56-.15,3.75,0,4.83.94,4.73,4.72-.22,8.95,0,8.95-8.89,8.95H867c-.54,2.16.88,3.36,1.64,4.74q24.12,43.36,48.25,86.73c1.44,2.6,2.88,4.31,6.09,3.79,1.82-.3,2.87.54,2.71,2.53a2.8,2.8,0,0,0,0,.5c.83,10.71.83,10.71-10.05,10.71-10.16,0-20.33-.16-30.49.1-3.48.08-5.31-1.1-7-4.09-12-21.85-24.2-43.61-36.35-65.39C841.08,282.52,840.21,281.17,839.3,279.68Z" transform="translate(-0.91 -0.91)" style="fill:#e50000"/><path d="M650.27,275.71c-6.93,15.32-13.58,30-20.2,44.65Q623,336,615.94,351.71c-.75,1.66-1.29,3.2-3.77,3.18-13.46-.13-26.93-.06-40.37-.06-.42-2.1.74-3.47,1.4-4.93q37-81.72,74-163.45c1.51-3.35,3.22-4.59,7-4.48,11,.3,22,.1,33,.11,5.46,0,5.47,0,3.13,5.2-6.27,13.94-12.44,27.92-18.93,41.76-1.48,3.14-1.14,5.37.53,8.21q33,56.14,65.73,112.39c.82,1.42,1.57,2.88,2.83,5.19H729.25c-9.17,0-18.34-.16-27.5.08-3.24.09-5-.92-6.67-3.73C680.41,326.24,665.56,301.41,650.27,275.71Z" transform="translate(-0.91 -0.91)" style="fill:#e50000"/><path d="M289.89,426.94Q256,462.31,222.13,497.71c-3.22,3.39-4.52.55-6.22-1.2q-41.53-42.93-83-85.91-20-20.69-39.79-41.5c-1.15-1.21-3.5-2.38-2.56-4.32.74-1.54,3-.71,4.63-.76,24.32-.68,48.65-1.23,73-2,3.73-.12,5.49.87,6.83,4.58,8.69,24.07,25,41.32,48,52.32,11,5.23,22.76,7.58,34.91,8.1,12,.51,23.49-2.13,35.05-5.73C293,424.42,290.79,425.27,289.89,426.94Z" transform="translate(-0.91 -0.91)" style="fill:#e6191d"/><path d="M501.87,278.41c-7.42,0-14.85-.14-22.27,0q-28.22.61-56.43,1.49c-3.19.11-4.62-.95-5.73-4-17.29-47-65.2-70.84-113-56.47a22.35,22.35,0,0,1-7.41,1.26q7.71-8.06,15.43-16.11c18.9-19.72,37.85-39.38,56.67-59.18,2.51-2.65,4-2.9,6.66-.11Q437.08,209,498.61,272.53c1.25,1.3,2.39,2.71,3.58,4.07C502.08,277.2,502,277.81,501.87,278.41Z" transform="translate(-0.91 -0.91)" style="fill:#e6191d"/><path d="M936.93,268.58c0-27,.07-54-.08-80.95,0-3.67.6-5.1,4.77-5,18.15.27,36.31.23,54.46,0,3.88,0,4.57,1,4.26,4.74-1.49,18.08-2.61,36.19-3.86,54.29-.11,1.56-.93,3.42,1.93,3.49,2.22.05,1.39,1.91,1.33,3-1.28,26.61-2.67,53.21-3.88,79.82-.15,3.19-1.46,3.83-4.3,3.76-6.32-.17-12.66-.22-19,0-3.2.12-3.91-1-3.75-4q1.57-30.92,2.82-61.86c.09-2.1,1.72-5-2.47-5.72-1.62-.26-.76-2.27-.69-3.5,1.1-18.28,2.27-36.56,3.29-54.84.11-2,1.85-5-2.82-5.15-4.2-.11-3.93,2-3.92,4.88,0,49.3,0,98.6.13,147.9,0,4.32-.89,5.8-5.41,5.47a155.9,155.9,0,0,0-18.47,0c-3.49.16-4.46-.86-4.44-4.39C937,323.21,936.93,295.89,936.93,268.58Z" transform="translate(-0.91 -0.91)" style="fill:#e50000"/><path d="M1395.93,264.93c-23.74,0-46.21-.11-68.68.09-4.32,0-6.1-.73-5.86-5.57.43-8.5.1-8.52,8.74-8.52H1452.9L1417.7,293c1,1.66,2.5.9,3.67.91,16.49.06,33,.15,49.49-.05,3.5,0,4.46.87,4.4,4.39-.18,9.69,0,9.7-9.53,9.7-16.83,0-33.66.11-50.49-.1-3.59,0-4.44,1-4.33,4.43.27,8,.14,16,.07,24-.09,10.55-6.82,17.94-17.19,18.14-15.32.29-30.66.05-46,.13-2.49,0-3.45-.64-3.57-3.35-.45-10.47-.56-10.56,9.87-10.44,18.17.19,15.82-.13,15.9-16.06,0-4.34-.22-8.68.08-13,.22-3.19-.9-3.83-3.91-3.81-19.33.13-38.66-.05-58,.16-3.94,0-5.48-.61-5.3-5,.37-9.06.09-9.07,9.12-9.07,18.16,0,36.32-.09,54.49.08a8.32,8.32,0,0,0,7.18-3.31C1380.71,282.32,1388,274.12,1395.93,264.93Z" transform="translate(-0.91 -0.91)" style="fill:#e50000"/><path d="M1723.79,338.63c1.32.09,2.11.2,2.89.2q30.48,0,61,0c7.1,0,9-3.14,5.83-9.54-2.48-5.08-5-10.14-7.62-15.15-1.1-2.11-.86-2.88,1.71-2.86,12.33.08,24.66.05,37,0,1.67,0,2.78.42,3.52,2.07,2.37,5.3,5.22,10.42,7.26,15.84,4.26,11.27-2.34,21.81-14.29,23.29a35.19,35.19,0,0,1-4.48.21q-68.47,0-137,.08c-4.07,0-5.19-.56-3.55-4.83,5.32-13.79,10.26-27.73,15.34-41.61,1.92-5.25,1.91-5.26-3.9-5.26-5,0-10-.08-15,0-2.24.06-3.15-.48-3.28-3-.59-11-.69-11,10.26-11q79,0,158-.08c4.06,0,5.88.47,5.62,5.26-.46,8.8-.11,8.82-8.92,8.82-30.82,0-61.65.07-92.47-.1-3.67,0-5.14,1.18-6.25,4.52C1731.77,316.48,1727.77,327.36,1723.79,338.63Z" transform="translate(-0.91 -0.91)" style="fill:#e50000"/><path d="M1307.09,181.84c12.67,0,24.65,0,36.62-.05,2.25,0,3.14.71,3.63,2.93,1.4,6.32,3.19,12.55,4.63,18.87.61,2.65,1.59,4,4.63,3.78a69.17,69.17,0,0,1,10.48,0c3,.2,3.32-1.09,2.68-3.55-1.54-6-2.93-11.93-4.47-17.88-.68-2.64-.86-4.25,2.91-4.17,10.82.24,21.65.18,32.47,0,2.76,0,3.78,1,4.31,3.5,1.25,6,2.9,11.95,4,18,.62,3.26,2.07,4.19,5.33,4.13,8.71-.17,8.7,0,10.84-8.5,1.18-4.67,2.63-9.29,3.53-14,.5-2.61,1.72-3.1,4-3.08,11,.08,22,.14,33,0,3.33-.05,3.32,1.06,2.57,3.78-2,7-3.53,14.12-5.3,21.37a19,19,0,0,0,2.19.35c10,.42,10,.42,10,10.27,0,8-.11,16,.06,24,.06,2.88-.48,4.1-3.76,4-10.49-.22-21-.18-31.48,0-3,0-4.13-.67-4-3.86.26-5.66,0-11.33.11-17,0-2.33-.25-3.61-3.16-3.6q-43.73.15-87.44,0c-2.64,0-3.47.82-3.4,3.43.17,5.65-.09,11.32.11,17,.1,2.9-.49,4.1-3.77,4-10.65-.21-21.32-.18-32,0-3,0-3.57-1-3.53-3.7.14-10,.24-20,0-30-.11-3.8,1-5.21,4.7-4.58,4.77.81,6-.82,4.46-5.56C1310.07,195.41,1308.81,188.87,1307.09,181.84Z" transform="translate(-0.91 -0.91)" style="fill:#e50000"/><path d="M1842.41,246.28c-16.11,0-31.22,0-46.33,0-2.28,0-3-1.86-4.08-3.23q-16.05-20.43-32-40.92c-1-1.3-2.09-2.57-3.4-4.19-11.24,14.06-22.57,27.74-33.28,41.88-3.71,4.9-7.5,6.85-13.65,6.61-13.11-.51-26.24-.16-39.27-.16-.56-1.81.65-2.48,1.3-3.33,15-19.36,30-38.67,44.94-58.08,2-2.59,4-3.83,7.39-3.8,21.33.18,42.67.12,64,0,2.47,0,4.32.39,6,2.55C1809.8,204.27,1825.74,224.77,1842.41,246.28Z" transform="translate(-0.91 -0.91)" style="fill:#e50000"/><path d="M1050.22,181c-2.92,13.94-5.71,27.44-8.61,40.92-.53,2.42-1.55,4.35,2.54,4.44,2.64.06,1.49,2.92,1.49,4.51.08,22.83.06,45.66.06,68.49,0,17-.09,34,.07,51,0,3.38-.72,4.7-4.37,4.56-7.32-.29-14.67-.31-22,0-3.9.17-5-.93-5-4.92.17-32.17.09-64.33.09-96.5,0-6.46,0-6.55-6.56-6.53-2.72,0-4.11.12-3.27-3.66,4.36-19.64,8.33-39.37,12.45-59.07.33-1.57.38-3.29,2.84-3.27C1029.92,181.05,1039.9,181,1050.22,181Z" transform="translate(-0.91 -0.91)" style="fill:#e50000"/><path d="M1102.83,286c0,16.32,0,32.64,0,49,0,13.86-6,19.84-19.71,19.84-5.16,0-10.33-.13-15.48.05-2.7.1-4.11-.51-3.73-3.52a18.23,18.23,0,0,0,0-4.49c-.42-3.55.35-5.43,4.64-5.08,3.56.3,4.71-2.57,4.74-5.72,0-6.33,0-12.66,0-19,0-27.15-.09-54.29.09-81.44,0-4.16-.64-6-5.35-5.58-5,.48-10,0-15,.15-2.28.06-3.09-.52-3.2-3-.5-10.91-.6-10.82,10.35-11,4.25-.06,9.91,1.92,12.36-1,2.09-2.45.68-7.92.72-12.06,0-6.16.2-12.33-.06-18.48-.14-3.21,1-3.91,4-3.82,7.16.2,14.33.22,21.48,0,3.18-.1,4.31.68,4.22,4.08-.24,9.32,0,18.65-.11,28,0,2.07.13,3.74,2.84,3.31,3.06-.47,3.68,1.15,3.46,3.77a32.47,32.47,0,0,0,0,5.49c.24,3,.08,5.14-4,4.7-3.46-.36-2.21,2.67-2.21,4.32C1102.8,251.72,1102.83,268.87,1102.83,286Z" transform="translate(-0.91 -0.91)" style="fill:#e50000"/><path d="M1755.82,271.17c-25.15,0-50.31-.1-75.46.09-4,0-5.47-.77-5.3-5.09.34-8.86.08-8.87,9-8.87,49,0,98,.06,146.93-.1,4.43,0,6.08.89,5.84,5.67-.42,8.28-.1,8.3-8.53,8.3Z" transform="translate(-0.91 -0.91)" style="fill:#e50101"/><path d="M1626,442c0-8.82,0-17.63,0-26.45,0-1.39-1-3.65,1.93-3.57,10.46.3,21-.81,31.37.62,11.54,1.58,17.86,8.95,20.33,19.74a39,39,0,0,1-.92,20.71c-3.74,11.76-12.8,18.56-25.28,18.87-8,.19-16-.08-24,.11-2.84.07-3.64-.78-3.58-3.59C1626.11,459.66,1626,450.84,1626,442Z" transform="translate(-0.91 -0.91)" style="fill:#e50000"/><path d="M1617.18,472c-4.91,0-9-.13-13.08.05-2.19.09-2.8-1.39-3.64-2.79-3.85-6.42-7.93-12.71-11.47-19.3-1.77-3.29-4.33-3.34-7.1-2.87-3.16.53-1.47,3.27-1.55,4.92-.24,5.49-.25,11,0,16.49.12,2.91-.92,3.56-3.66,3.57-8.1,0-8.1.15-8.1-8.08,0-16,.1-32-.08-48,0-3.34,1-4.19,4.18-4.08,6.49.24,13,0,19.49.08,9,.08,14.43,3.47,16.47,10.17a17.11,17.11,0,0,1-7.35,19.17c-3.63,2.22-2.9,3.57-1,6.27C1605.89,455.41,1611.24,463.38,1617.18,472Z" transform="translate(-0.91 -0.91)" style="fill:#e50000"/><path d="M985.06,465.45c-5.15,6.55-11.19,8.81-18.54,7s-10.85-7.44-12.14-14.34c-1.42-7.63-1.17-15.25,2.59-22.37,5.32-10.08,16.4-12.82,25.75-6.37.63.44,1.22.93,2.57,1.95,0-6.94.13-13,0-19.1-.09-3,.4-4.41,4-4.34,8,.15,8-.07,8,8.13,0,17.15-.12,34.29.1,51.43,0,3.76-.93,5.23-4.65,4.54a1.68,1.68,0,0,0-.5,0C987.66,472.48,983.59,472.41,985.06,465.45Z" transform="translate(-0.91 -0.91)" style="fill:#e50000"/><path d="M1223.12,434.79c0,5-.11,10,0,15,.49,20.62-14,24.65-27.73,23-12.76-1.57-19.07-8.87-19.33-21.79-.23-11.81,0-23.63-.14-35.45,0-2.89.89-3.54,3.64-3.55,8.87,0,8.79-.16,8.89,8.79.14,11.15-.61,22.31.43,33.43.66,6.93,4.44,10.51,10.77,10.85,7.8.41,12.21-3.7,12.37-12.18.22-12,.45-24-.08-35.94-.24-5.4,2.48-4.76,5.92-5,3.8-.22,5.73.33,5.36,4.92C1222.76,422.78,1223.12,428.8,1223.12,434.79Z" transform="translate(-0.91 -0.91)" style="fill:#e50000"/><path d="M702.88,434.74c3.62-4.79,7.2-7.3,11.67-8.41,7.61-1.89,15.24,2.45,15.81,10.21.8,11.1.39,22.29.52,33.44,0,1.52-.69,2.09-2.11,2-.5,0-1,0-1.5,0-8.39.25-8.39.25-8.39-8.18,0-7.33.11-14.66,0-22-.13-6.6-4.47-8.83-10-5.16-3.72,2.47-6.29,5.57-6,10.64.35,6.81,0,13.65.15,20.48.08,3-.48,4.36-4,4.3-8.07-.15-8.07.06-8.07-8.09,0-17.16.12-34.31-.1-51.47,0-3.73.87-5.18,4.64-4.58a16.8,16.8,0,0,0,4.48,0c2.52-.26,3.06.9,3,3.19C702.8,418.48,702.88,425.8,702.88,434.74Z" transform="translate(-0.91 -0.91)" style="fill:#e50000"/><path d="M1766.78,420c-8.82,0-16.65-.2-24.47.09-3.48.13-3.62-1.42-3.64-4.11s.28-4.14,3.69-4.07c11,.24,22,.09,33,.09,6.09,0,8.13,3.8,4.94,9.39-1.15,2-2.57,3.89-3.88,5.81-8.1,12-16.21,23.95-24.92,36.8,8.89,0,17.08.22,25.25-.1,3.77-.14,4.84.89,4.66,4.65-.14,2.93-1.07,3.53-3.76,3.5-11.32-.13-22.65,0-34-.12-2.16,0-5.59,1.39-6.31-.91a10.47,10.47,0,0,1,1.27-9.5c4.78-6.6,9.19-13.46,13.76-20.21Z" transform="translate(-0.91 -0.91)" style="fill:#e50000"/><path d="M1069.74,282.79c0,10.64-.1,21.28.07,31.93,0,2.59-.49,3.7-3.21,3.48-2.15-.18-4.33,0-6.49,0-8.76,0-8.72,0-9-8.5-.69-19.46-1.29-38.93-2.22-58.38-.2-4.11,1.09-5.24,4.91-4.84,4.27.45,9.91-1.76,12.48.9,2.21,2.28,1.19,7.86,1.27,12,.14,7.82,0,15.64,0,23.46Z" transform="translate(-0.91 -0.91)" style="fill:#e50000"/><path d="M817.75,461.2c6,2.05,11.46,4.18,17.44,3.82,4.3-.26,8-1.55,9.3-6s-1.26-7.28-4.77-9.41c-4.54-2.75-9.26-5.23-13.65-8.2-7.25-4.91-9.84-11.21-8-18.29,1.65-6.32,7.74-11.05,15.67-11.94,5.84-.65,11.6.32,17.35,1.29,2.22.38,3.06,1.48,2.81,3.74a50,50,0,0,0,0,5.63c-5.15-.92-9.8-2.9-14.84-2.81-3.88.08-7.56.8-8.92,4.9-1.46,4.42,1.75,6.71,5,8.68,5,3,10.06,5.81,14.94,8.95,6.19,4,9,9.85,7.5,17.12-1.57,7.63-6.75,11.77-14.28,13.49s-14.88.6-22.29-.41c-2.22-.3-3.62-1.22-3.28-3.88A57.07,57.07,0,0,0,817.75,461.2Z" transform="translate(-0.91 -0.91)" style="fill:#e50000"/><path d="M1315.88,449.5c0-14.68,8.67-23.52,23-23.5,13.94,0,22.76,9,22.94,23.25S1353,473,1338.93,473C1324.54,473,1315.89,464.2,1315.88,449.5Z" transform="translate(-0.91 -0.91)" style="fill:#e50000"/><path d="M1472.92,473c-14.21-.06-23-9.21-22.79-23.85s9-23.24,23.48-23.15c13.85.09,22.55,9.22,22.51,23.6C1496.07,464.18,1487.27,473.06,1472.92,473Z" transform="translate(-0.91 -0.91)" style="fill:#e50000"/><path d="M1249.58,435.3c4-5.17,7.45-7.75,11.93-8.89,8.06-2.06,15.75,2.63,16.21,10.9.6,10.8.2,21.65.3,32.47,0,1.81-.75,2.09-2.36,2.26-9.66,1-9.66,1.07-9.66-8.44,0-7.33.11-14.66,0-22-.12-6.11-4.15-8.45-9.33-5.32-4.13,2.48-7,5.75-6.72,11.26.37,7-.06,14,.16,21,.09,2.93-.94,3.52-3.67,3.53-8.4,0-8.4.14-8.4-8.22,0-10.83.14-21.66-.08-32.49-.07-3.39.65-5.05,4.28-4.36a1.68,1.68,0,0,0,.5,0C1247.65,426.3,1251.69,426.7,1249.58,435.3Z" transform="translate(-0.91 -0.91)" style="fill:#e50000"/><path d="M1385.14,433.94c3.52-4.06,7.17-6.54,11.7-7.64,8-1.94,15.54,3.05,15.94,11.36.51,10.63.13,21.31.25,32,0,2.16-1,2.3-2.72,2.41-9.31.61-9.31.66-9.31-8.79,0-7.16.1-14.33,0-21.49-.12-6.36-4.31-8.71-9.65-5.31-3.88,2.48-6.69,5.64-6.41,10.95.37,7,0,14,.15,21,.06,2.71-.56,3.68-3.51,3.69-8.55,0-8.55.18-8.55-8.58,0-10.83.14-21.66-.08-32.49-.07-3.31.9-4.56,4.13-4a3.35,3.35,0,0,0,1,0C1382.9,426.38,1386.73,426.91,1385.14,433.94Z" transform="translate(-0.91 -0.91)" style="fill:#e50000"/><path d="M930.12,465.17c-3.55,3.28-6.37,5.9-10.42,7.08-9,2.6-16.75-1.8-17.3-10.95-.64-10.62-.2-21.31-.3-32,0-1.72.65-2.16,2.31-2.37,9.18-1.16,9.71-.75,9.71,8.41q0,10.74,0,21.49c0,2.56.2,5.1,2.78,6.51s5.19.41,7.43-1.15c3.7-2.59,6.13-5.72,5.87-10.74-.35-6.81,0-13.66-.14-20.48-.07-2.8.31-4.12,3.68-4.1,8.37.07,8.37-.14,8.37,8.31,0,10.82-.15,21.65.09,32.48.07,3.48-.82,5-4.36,4.32a3.29,3.29,0,0,0-1,0C932.09,472.62,928.31,472.16,930.12,465.17Z" transform="translate(-0.91 -0.91)" style="fill:#e50000"/><path d="M1021.4,452.34c.81,8.54,5.06,12.48,13.44,12.69,3.36.09,6.6-.77,9.89-1,1.22-.06,3.57-2.53,3.79.58.18,2.36,2,6.06-2.39,6.9-7.53,1.44-15.12,2.48-22.69.21-11.8-3.54-17.93-17.67-13.58-31.21,3.72-11.57,15-17.32,26.57-13.56,7.67,2.5,10.64,8.42,11.62,15.84,1.2,9.17,1.23,9.16-7.74,9.17l-18,.06A3.93,3.93,0,0,0,1021.4,452.34Z" transform="translate(-0.91 -0.91)" style="fill:#e50000"/><path d="M1692.12,441.89c0-8.84.09-17.67,0-26.5,0-2.53.56-3.49,3.29-3.45,10.5.15,21,.19,31.49,0,3.58-.07,3,2,3.05,4.16.1,2.37.12,4.13-3.24,4-6-.26-12,.15-18-.16-3.46-.17-4.22,1.11-4,4.24a100.09,100.09,0,0,1,0,11.49c-.12,2.53.57,3.54,3.29,3.42,4.82-.21,9.67.12,14.49-.11,3.82-.19,2.66,2.42,2.8,4.33s.38,4-2.86,3.78c-4-.25-8,.33-12-.16-5.07-.63-6.16,1.39-5.79,6,.42,5.3,0,10.66.14,16,.07,2.4-.73,3-3.12,3.16-9.51.4-9.51.5-9.51-9.19Z" transform="translate(-0.91 -0.91)" style="fill:#e50101"/><path d="M781.5,463.22c.75,8.93,1.2,7.81-6.81,9.06-5.82.91-11.57,1.16-17.31-.33-12-3.11-18.58-16.87-14.58-30.66,3.48-12,14.7-18,26.55-14.36,8.45,2.63,11.06,9.24,12,17.15s1.1,7.92-6.66,7.92c-5.83,0-11.66.1-17.48-.05-2.5-.06-3.09.58-2.52,3.1,1.31,5.86,5.66,9.58,12,10C771.8,465.3,776.63,464.15,781.5,463.22Z" transform="translate(-0.91 -0.91)" style="fill:#e50000"/><path d="M1073.68,433.59c3.41-3.31,6.68-5.95,11-7.1,8.35-2.22,16,2.51,16.46,11,.52,10.64.18,21.32.31,32,0,2-.78,2.41-2.63,2.56-9.29.76-9.28.83-9.28-8.38,0-7.17,0-14.33,0-21.5,0-2.7-.22-5.5-3.19-6.77-2.78-1.19-5.29,0-7.43,1.64-3.36,2.61-5.81,5.62-5.55,10.46.37,6.82-.1,13.67.17,20.49.14,3.37-1,4.46-4.19,4a14.41,14.41,0,0,0-4,0c-3.14.46-3.89-.84-3.85-3.86.16-12.5.13-25,0-37.49,0-2.67.49-4.17,3.49-3.69a7.44,7.44,0,0,0,2,0C1071.61,426.41,1075,427.14,1073.68,433.59Z" transform="translate(-0.91 -0.91)" style="fill:#e50000"/><path d="M660.88,446.15c0,7.33-.15,14.66.07,22,.09,3-.7,4-3.84,3.95-8.82,0-8.82.12-8.82-8.44,0-12.83-.16-25.66.1-38.49.08-4-.63-5.69-5-5.26s-9-.12-13.48.17c-3.67.23-2.9-2.09-3-4.16-.1-2.3-.22-4,3.18-4q24.5.27,49,0c3.91,0,3.05,2.24,3.26,4.45.27,2.74-.51,3.87-3.49,3.7-4.49-.25-9,.25-13.49-.15-4-.37-4.65,1.2-4.51,4.74C661.07,431.81,660.88,439,660.88,446.15Z" transform="translate(-0.91 -0.91)" style="fill:#e50101"/><path d="M1508.56,453.39c0-5.16,0-10.32,0-15.47,0-1.58,0-3.22-2.23-2.89-3.16.46-3.89-.87-3.88-3.87s.6-4.68,4.06-4.21c2.39.33,2-1.61,2-3,1-14.37,11.9-21.2,25.52-16.07,3.56,1.34,1.48,4.27,1.66,6.4.25,2.78-1.9,1.19-3.15,1.13a47.84,47.84,0,0,0-7-.28c-3.86.37-7.34,8.28-4.89,11.16,1.45,1.7,3.77.58,5.69.72,2.65.19,5.47-1,5.47,3.89,0,4.47-2.25,4.57-5.19,4.09-5.34-.87-6.63,1.35-6.38,6.43.42,8.8,0,17.63.17,26.45.06,3.05-.49,4.34-4,4.27-8-.17-8,0-8-7.73Z" transform="translate(-0.91 -0.91)" style="fill:#e50000"/><path d="M891.61,464.58c.66,8,.16,8.51-7.64,8.42-9.53-.12-14.09-4.24-14.55-13.81-.33-7-.07-14-.17-20.93,0-1.15.73-3.28-1.28-3.11-3.9.31-3.63-1.93-3.76-4.6-.14-2.89.9-3.88,3.67-3.61,1.43.14,1.6-1.12,1.37-2.07-1.26-5.15,2.55-5,5.7-5.58,3.83-.68,7.3-1.05,6.36,4.84-.66,4.17,2.76,2.7,4.71,2.82,2.6.17,5.18-.65,5,3.8-.13,3.53-1.08,4.89-4.5,4.24-4.47-.85-5.73,1-5.38,5.37.41,5.12,0,10.29.12,15.45C881.43,463.86,883.67,465.72,891.61,464.58Z" transform="translate(-0.91 -0.91)" style="fill:#e50101"/><path d="M1116.75,449.35c0-3,0-6,0-9,0-2.59,1.12-5.6-3.74-5.64-2.39,0-.88-3.29-1.2-5.06-.22-1.27-.26-2.8,1.84-2.66,1.81.11,3.23,0,3.19-2.53,0-1.47-1.11-3.83,1-4.34,3.19-.77,6.52-1.69,9.84-1,1.79.37,1.14,2.3,1,3.4-.62,3.92,1.09,4.94,4.68,4.51,2.6-.32,5.13-.7,5,3.7-.13,3.49-1,4.88-4.45,4.25-4-.73-5.54.64-5.22,5,.45,6.12,0,12.3.29,18.44.23,5.08,2.41,6.76,7.34,6.62.93,0,3-1.89,2.75.83-.21,2.14,1.82,5-1.64,6.43-10,4.18-20.13-2.18-20.54-12.95-.13-3.32,0-6.65,0-10Z" transform="translate(-0.91 -0.91)" style="fill:#e50000"/><path d="M1292.74,449.57c0-6.33.13-12.66-.06-19-.08-2.79.69-3.65,3.57-3.67,8.46,0,8.46-.18,8.46,8.27,0,10.83-.14,21.65.09,32.47.07,3.5-.91,4.91-4.42,4.36a10,10,0,0,0-3,0c-3.55.55-5-.51-4.75-4.47C1293,461.58,1292.74,455.57,1292.74,449.57Z" transform="translate(-0.91 -0.91)" style="fill:#e50101"/><path d="M1292.91,412.32c-2-6.29,2.59-4.86,6.32-5.44,6.35-1,5.11,3,5.62,6.78.85,6.47-3.3,5-6.95,5.45C1292,419.89,1292.31,416.43,1292.91,412.32Z" transform="translate(-0.91 -0.91)" style="fill:#e50303"/><path d="M289.89,426.94c-.1-1.9,2-2.56,2.49-4.73-8.6,2.43-17,5-25.71,5.34-15.24.65-30.1-.91-43.7-8.64a17.24,17.24,0,0,1,2.87.62c21.77,8.82,43.72,8.82,65.83,1.42,1.22-.4,2.35-1.34,4.13-.6C294.82,423.48,292.4,425.25,289.89,426.94Z" transform="translate(-0.91 -0.91)" style="fill:#cc767b"/><path d="M1167.52,267.45c0-10.64.09-21.28-.07-31.92,0-2.79.72-3.62,3.59-3.68,13-.25,13-.35,13,12.57,0,18.45-.06,36.91.07,55.36,0,3.1-.58,4.25-4,4.25-12.6,0-12.6.11-12.6-12.64Z" transform="translate(-0.91 -0.91)" style="fill:#fefdfd"/><path d="M1227.7,267.49c0-10.65.09-21.3-.06-31.94,0-2.75.64-3.64,3.55-3.7,13.3-.26,13.29-.36,13.29,12.88q0,25.2,0,50.41c0,7.52-1.25,8.76-8.64,8.79-8.14,0-8.14,0-8.14-8Z" transform="translate(-0.91 -0.91)" style="fill:#fefdfd"/><path d="M1638.45,441.87c0-6.17.1-12.34,0-18.5-.07-2.55.64-3.73,3.34-3.4a25.3,25.3,0,0,0,4,0c8.53-.27,15.89,1.5,19.54,10.47,3.79,9.31,2,23.4-3.91,29.3-4.16,4.12-9.5,4.28-14.89,4.25-8,0-8,0-8-8.15Z" transform="translate(-0.91 -0.91)" style="fill:#fefefe"/><path d="M1580.25,429.44c0-.33-.12-.73,0-1,1.43-2.65-3.17-7.56,2.7-8.37,7.86-1.07,12.44,1.28,13.54,6.14a10.43,10.43,0,0,1-6.81,11.85c-.16.06-.32.08-.48.13-7.64,2.43-9,1.51-9-6.26Z" transform="translate(-0.91 -0.91)" style="fill:#fefcfc"/><path d="M985.29,448.14c.14,5.14.82,10.27-4.54,13.8-5.61,3.69-11,2.4-13.17-3.93a25,25,0,0,1,.83-18.51c1.78-4.15,5-6.19,9.57-5.37s7.28,4.09,7.31,9C985.3,444.81,985.29,446.48,985.29,448.14Z" transform="translate(-0.91 -0.91)" style="fill:#fefdfd"/><path d="M1349,449.36a19.16,19.16,0,0,1-2.74,11.46c-3.82,5.9-11.82,5.82-15.08-.41a22.64,22.64,0,0,1-.13-21.57c3.42-6.71,11.91-6.63,15.61-.06A19.89,19.89,0,0,1,1349,449.36Z" transform="translate(-0.91 -0.91)" style="fill:#fefefe"/><path d="M1463,449.6a18.77,18.77,0,0,1,2.41-11c3.75-6.29,12-6.39,15.37.07,3.69,7,3.58,14.43.12,21.59a8.07,8.07,0,0,1-7.57,4.8,8.48,8.48,0,0,1-8.08-4.82A19.11,19.11,0,0,1,1463,449.6Z" transform="translate(-0.91 -0.91)" style="fill:#fefefe"/><path d="M1021.12,445a13.12,13.12,0,0,1,1.57-6.46c1.94-3.65,5-5.55,9-4.18s4.92,5,5.16,8.84c.13,2.17-1.48,1.78-2.71,1.79C1029.86,445,1025.56,445,1021.12,445Z" transform="translate(-0.91 -0.91)" style="fill:#fefcfc"/><path d="M762.12,445a5.46,5.46,0,0,1-1,0c-2.27-.48-5.74,1.4-6.61-1.1s.85-5.44,2.88-7.58,4.81-3.07,7.69-1.88c3.94,1.63,4.79,5.16,4.91,9,0,1.43-.84,1.57-1.91,1.56Z" transform="translate(-0.91 -0.91)" style="fill:#fefcfc"/></svg>